<svg width="10" height="12" viewBox="0 0 10 12" fill="none" xmlns="http://www.w3.org/2000/svg">
<path d="M0 10.2V9.00003H1.2V4.80002C1.2 3.97001 1.45001 3.23251 1.95001 2.58751C2.45001 1.94251 3.10001 1.52001 3.90001 1.32V0.900003C3.90001 0.650002 3.98751 0.437502 4.16251 0.262501C4.33752 0.0875003 4.55002 0 4.80002 0C5.05002 0 5.26252 0.0875003 5.43752 0.262501C5.61252 0.437502 5.70002 0.650002 5.70002 0.900003V1.32C6.50002 1.52001 7.15002 1.94251 7.65003 2.58751C8.15003 3.23251 8.40003 3.97001 8.40003 4.80002V9.00003H9.60003V10.2H0ZM4.80002 12C4.47002 12 4.18751 11.8825 3.95251 11.6475C3.71751 11.4125 3.60001 11.13 3.60001 10.8H6.00002C6.00002 11.13 5.88252 11.4125 5.64752 11.6475C5.41252 11.8825 5.13002 12 4.80002 12Z" fill="#FFDF9E"/>
</svg>
