<svg width="24" height="24" viewBox="0 0 24 24" fill="none" xmlns="http://www.w3.org/2000/svg">
<path d="M17.05 20.28C16.09 21.23 14.93 22.22 13.55 22.22C12.21 22.22 11.81 21.4 10.23 21.4C8.64 21.4 8.18 22.21 6.9 22.22C5.56 22.23 4.42 21.27 3.44 19.94C1.42 17.21 0.339999 12.24 2.44 8.61C3.49 6.81 5.31 5.67 6.98 5.67C8.26 5.67 9.48 6.56 10.26 6.56C11.04 6.56 12.52 5.47 14.03 5.47C15.61 5.47 17.04 6.3 17.99 7.61C14.76 9.53 15.28 13.74 18.42 15.03C17.3 17.42 16.01 19.29 15.01 20.29L17.05 20.28ZM12.03 4.72C11.97 2.8 13.61 1.17 15.42 1C15.58 2.99 13.83 4.69 12.03 4.72Z" fill="#F0DFDB"/>
</svg>
