<svg width="25" height="20" viewBox="0 0 25 20" fill="none" xmlns="http://www.w3.org/2000/svg">
<path d="M10.0625 4.5625L13.75 8.21875V5.4375H16.25V12.5H9.1875V10H12L8.3125 6.3125L10.0625 4.5625ZM21.25 20C20.2083 20 19.3229 19.6354 18.5938 18.9062C17.8646 18.1771 17.5 17.2917 17.5 16.25C17.5 15.2083 17.8646 14.3229 18.5938 13.5938C19.3229 12.8646 20.2083 12.5 21.25 12.5C22.2917 12.5 23.1771 12.8646 23.9062 13.5938C24.6354 14.3229 25 15.2083 25 16.25C25 17.2917 24.6354 18.1771 23.9062 18.9062C23.1771 19.6354 22.2917 20 21.25 20ZM2.5 20C1.8125 20 1.22396 19.7552 0.734375 19.2656C0.244792 18.776 0 18.1875 0 17.5V2.5C0 1.8125 0.244792 1.22396 0.734375 0.734375C1.22396 0.244792 1.8125 0 2.5 0H22.5C23.1875 0 23.776 0.244792 24.2656 0.734375C24.7552 1.22396 25 1.8125 25 2.5V10H22.5V2.5H2.5V17.5H15V20H2.5Z" fill="#FFDF9E"/>
</svg>
