<svg width="25" height="25" viewBox="0 0 25 25" fill="none" xmlns="http://www.w3.org/2000/svg">
<path d="M12.5402 10.9727V14.2685H20.418C20.1768 16.1174 19.4936 17.4437 18.5289 18.4084C17.3231 19.6141 15.4341 20.9003 12.3392 20.9003C7.3955 20.9003 3.45659 16.881 3.45659 11.9775C3.45659 7.07395 7.3955 3.05466 12.3392 3.05466C15.0322 3.05466 16.9614 4.13987 18.4084 5.50643L20.7395 3.17524C18.7701 1.1254 15.9164 0 12.5402 0C5.62701 0 0 5.62701 0 12.5C0 19.373 5.62701 25 12.5402 25C16.2379 25 19.0514 23.7942 21.2219 21.5032C23.4727 19.2524 24.1961 16.0772 24.1961 13.3842C24.1961 12.5804 24.1158 11.8569 23.9952 11.1736H12.5402V10.9727Z" fill="#F0DFDB"/>
</svg>
