<svg width="15" height="50" viewBox="0 0 15 50" fill="none" xmlns="http://www.w3.org/2000/svg">
<path d="M13.8333 32.5L8.58333 27.25C8.16667 27.5833 7.6875 27.8472 7.14583 28.0417C6.60417 28.2361 6.02778 28.3333 5.41667 28.3333C3.90278 28.3333 2.62153 27.809 1.57292 26.7604C0.524305 25.7118 0 24.4306 0 22.9167C0 21.4028 0.524305 20.1215 1.57292 19.0729C2.62153 18.0243 3.90278 17.5 5.41667 17.5C6.93056 17.5 8.21181 18.0243 9.26042 19.0729C10.309 20.1215 10.8333 21.4028 10.8333 22.9167C10.8333 23.5278 10.7361 24.1042 10.5417 24.6458C10.3472 25.1875 10.0833 25.6667 9.75 26.0833L15 31.3333L13.8333 32.5ZM5.41667 26.6667C6.45833 26.6667 7.34375 26.3021 8.07292 25.5729C8.80208 24.8438 9.16667 23.9583 9.16667 22.9167C9.16667 21.875 8.80208 20.9896 8.07292 20.2604C7.34375 19.5312 6.45833 19.1667 5.41667 19.1667C4.375 19.1667 3.48958 19.5312 2.76042 20.2604C2.03125 20.9896 1.66667 21.875 1.66667 22.9167C1.66667 23.9583 2.03125 24.8438 2.76042 25.5729C3.48958 26.3021 4.375 26.6667 5.41667 26.6667Z" fill="#A48B8A"/>
</svg>
